<svg width="161" height="50" viewBox="0 0 161 50" xmlns="http://www.w3.org/2000/svg" xmlns:xlink="http://www.w3.org/1999/xlink" overflow="hidden"><g fill="none"><path d="M155.248 50 5.24806 50C2.49806 50 0.248062 47.75 0.248062 45L0.248062 5C0.248062 2.25 2.49806 0 5.24806 0L155.248 0C157.998 0 160.248 2.25 160.248 5L160.248 45C160.248 47.75 157.998 50 155.248 50Z" fill="#000000"/><g fill="#FFFFFF"><path d="M33.7364 24.75C33.7364 20.875 36.9612 19 37.0853 18.875 35.2248 16.25 32.4961 15.875 31.5039 15.75 29.1473 15.5 26.7907 17.125 25.6744 17.125 24.4341 17.125 22.5736 15.75 20.5891 15.75 17.9845 15.75 15.6279 17.25 14.2636 19.625 11.5349 24.375 13.5194 31.375 16.124 35.25 17.4884 37.125 18.9767 39.25 20.9612 39.125 22.9457 39 23.6899 37.875 26.0465 37.875 28.4031 37.875 29.0233 39.125 31.1318 39.125 33.2403 39.125 34.6047 37.25 35.845 35.375 37.3333 33.25 37.9535 31.125 37.9535 31 37.8295 30.875 33.7364 29.375 33.7364 24.75Z"/><path d="M29.8915 13.25C30.8837 11.875 31.6279 10.125 31.5039 8.25 30.0155 8.375 28.031 9.25 27.0388 10.625 26.0465 11.75 25.1783 13.625 25.4264 15.375 27.0388 15.5 28.7752 14.5 29.8915 13.25Z"/><path d="M62.0155 38.875 59.2868 38.875 57.7985 34.125 52.5891 34.125 51.2248 38.875 48.6202 38.875 53.8295 22.75 57.0543 22.75ZM57.3023 32.125 55.938 27.875C55.814 27.5 55.5659 26.375 55.0698 24.875 54.9457 25.5 54.6977 26.625 54.3256 27.875L52.9612 32.125Z"/><path d="M75.2868 33C75.2868 35 74.7907 36.5 73.6744 37.75 72.6822 38.75 71.5659 39.25 70.0775 39.25 68.5891 39.25 67.4729 38.75 66.8527 37.625L66.8527 43.75 64.2481 43.75 64.2481 31.25C64.2481 30 64.2481 28.75 64.124 27.375L66.3566 27.375 66.4806 29.25C67.3488 27.875 68.5891 27.125 70.3256 27.125 71.6899 27.125 72.8062 27.625 73.6744 28.75 74.7907 29.75 75.2868 31.125 75.2868 33ZM72.6822 33C72.6822 31.875 72.4341 30.875 71.938 30.25 71.4419 29.5 70.6977 29.125 69.7054 29.125 69.0853 29.125 68.4651 29.375 67.969 29.75 67.4729 30.125 67.1008 30.75 66.9767 31.375 66.8527 31.75 66.8527 32 66.8527 32.125L66.8527 34.125C66.8527 35 67.1008 35.625 67.5969 36.25 68.093 36.875 68.8372 37.125 69.5814 37.125 70.5736 37.125 71.3178 36.75 71.814 36 72.4341 35.25 72.6822 34.25 72.6822 33Z"/><path d="M88.5581 33C88.5581 35 88.062 36.5 86.9457 37.75 85.9535 38.75 84.8372 39.25 83.3488 39.25 81.8605 39.25 80.7442 38.75 80.124 37.625L80.124 43.75 77.5194 43.75 77.5194 31.25C77.5194 30 77.5194 28.75 77.3953 27.375L79.6279 27.375 79.7519 29.25C80.6202 27.875 81.8605 27.125 83.5969 27.125 84.9612 27.125 86.0775 27.625 86.9457 28.75 88.062 29.75 88.5581 31.125 88.5581 33ZM85.9535 33C85.9535 31.875 85.7054 30.875 85.2093 30.25 84.7132 29.5 83.969 29.125 82.9767 29.125 82.3566 29.125 81.7364 29.375 81.2403 29.75 80.7442 30.125 80.3721 30.75 80.2481 31.375 80.124 31.75 80.124 32 80.124 32.125L80.124 34.125C80.124 35 80.3721 35.625 80.8682 36.25 81.3643 36.875 82.1085 37.125 82.8527 37.125 83.845 37.125 84.5891 36.75 85.0853 36 85.7054 35.25 85.9535 34.25 85.9535 33Z"/><path d="M103.442 34.375C103.442 35.75 102.946 36.875 102.078 37.75 101.085 38.75 99.5969 39.125 97.7364 39.125 96 39.125 94.6357 38.75 93.6434 38.125L94.2636 36C95.3798 36.625 96.6202 37 97.9845 37 98.9767 37 99.7209 36.75 100.217 36.375 100.713 35.875 100.961 35.375 100.961 34.625 100.961 34 100.713 33.375 100.341 33 99.845 32.5 99.1008 32.125 98.1085 31.75 95.2558 30.75 93.8915 29.125 93.8915 27.125 93.8915 25.75 94.3876 24.75 95.3798 23.875 96.3721 23 97.6124 22.625 99.3488 22.625 100.837 22.625 101.953 22.875 102.946 23.375L102.326 25.5C101.457 25 100.465 24.75 99.2248 24.75 98.3566 24.75 97.6124 25 97.1163 25.375 96.7442 25.75 96.4961 26.25 96.4961 26.875 96.4961 27.5 96.7442 28 97.2403 28.5 97.6124 28.875 98.4806 29.25 99.5969 29.75 100.961 30.25 101.953 31 102.698 31.75 103.07 32.375 103.442 33.25 103.442 34.375Z"/><path d="M111.876 29.25 109.023 29.25 109.023 34.875C109.023 36.25 109.519 37 110.512 37 111.008 37 111.38 37 111.628 36.875L111.752 38.875C111.256 39.125 110.636 39.125 109.767 39.125 108.775 39.125 107.907 38.875 107.411 38.25 106.791 37.625 106.543 36.625 106.543 35.125L106.543 29.25 104.806 29.25 104.806 27.25 106.543 27.25 106.543 25.125 109.023 24.375 109.023 27.25 111.876 27.25Z"/><path d="M124.651 33C124.651 34.75 124.155 36.25 123.163 37.375 122.047 38.5 120.682 39.125 118.946 39.125 117.209 39.125 115.845 38.5 114.853 37.375 113.86 36.25 113.364 34.875 113.364 33.125 113.364 31.375 113.86 29.875 114.977 28.75 115.969 27.625 117.457 27 119.194 27 120.93 27 122.295 27.625 123.287 28.75 124.155 29.875 124.651 31.25 124.651 33ZM121.922 33.125C121.922 32 121.674 31.125 121.178 30.375 120.682 29.5 119.814 29 118.822 29 117.829 29 116.961 29.5 116.465 30.375 115.969 31.125 115.721 32.125 115.721 33.125 115.721 34.25 115.969 35.125 116.465 35.875 116.961 36.75 117.829 37.25 118.822 37.25 119.814 37.25 120.558 36.75 121.178 35.875 121.674 35.125 121.922 34.125 121.922 33.125Z"/><path d="M132.961 29.5C132.713 29.5 132.465 29.375 132.093 29.375 131.225 29.375 130.481 29.75 129.984 30.375 129.612 31 129.364 31.75 129.364 32.625L129.364 38.75 126.76 38.75 126.76 30.75C126.76 29.375 126.76 28.25 126.636 27.125L128.868 27.125 128.992 29.375 129.116 29.375C129.364 28.625 129.86 28 130.357 27.5 130.977 27.125 131.597 26.875 132.217 26.875L132.837 26.875 132.837 29.5Z"/><path d="M144.372 32.5C144.372 33 144.372 33.375 144.248 33.625L136.558 33.625C136.558 34.75 136.93 35.625 137.674 36.25 138.295 36.75 139.163 37.125 140.155 37.125 141.271 37.125 142.388 37 143.256 36.625L143.628 38.375C142.512 38.875 141.271 39.125 139.783 39.125 138.047 39.125 136.558 38.625 135.566 37.5 134.574 36.5 134.078 35 134.078 33.25 134.078 31.5 134.574 30 135.442 28.875 136.434 27.625 137.798 27 139.535 27 141.147 27 142.512 27.625 143.256 28.875 144.124 29.875 144.372 31.125 144.372 32.5ZM142.016 31.875C142.016 31.125 141.891 30.5 141.519 29.875 141.023 29.125 140.403 28.75 139.535 28.75 138.667 28.75 138.047 29.125 137.55 29.75 137.178 30.25 136.93 31 136.806 31.75L142.016 31.75Z"/><path d="M56.5581 12.875C56.5581 14.25 56.186 15.375 55.3178 16.125 54.5736 16.75 53.4574 17.125 51.969 17.125 51.2248 17.125 50.6047 17.125 50.1085 17L50.1085 9.25C50.7287 9.125 51.4729 9.125 52.3411 9.125 53.7054 9.125 54.6977 9.375 55.4419 10 56.062 10.625 56.5581 11.625 56.5581 12.875ZM55.1938 12.875C55.1938 12 54.9457 11.25 54.4496 10.75 53.9535 10.25 53.2093 10 52.3411 10 51.969 10 51.5969 10 51.3488 10.125L51.3488 16 52.2171 16C53.2093 16 53.9535 15.75 54.4496 15.25 54.9457 14.75 55.1938 13.875 55.1938 12.875Z"/><path d="M63.5039 14.125C63.5039 15 63.2558 15.75 62.7597 16.25 62.2636 16.875 61.5194 17.125 60.6512 17.125 59.7829 17.125 59.1628 16.875 58.6667 16.25 58.1705 15.75 57.9225 15 57.9225 14.125 57.9225 13.25 58.1705 12.5 58.6667 12 59.1628 11.375 59.907 11.125 60.7752 11.125 61.6434 11.125 62.2636 11.375 62.7597 12 63.2558 12.5 63.5039 13.25 63.5039 14.125ZM62.2636 14.125C62.2636 13.625 62.1395 13.125 61.8915 12.75 61.6434 12.25 61.2713 12.125 60.7752 12.125 60.2791 12.125 59.907 12.375 59.6589 12.75 59.4109 13.125 59.2868 13.625 59.2868 14.125 59.2868 14.625 59.4109 15.125 59.6589 15.5 59.907 16 60.2791 16.125 60.7752 16.125 61.2713 16.125 61.6434 15.875 61.8915 15.375 62.1395 15.125 62.2636 14.625 62.2636 14.125Z"/><path d="M73.0543 11.25 71.3178 17 70.2016 17 69.4574 14.5C69.2093 13.875 69.0853 13.25 68.9612 12.625 68.8372 13.25 68.7132 13.875 68.4651 14.5L67.7209 17 66.6047 17 64.7442 11.25 65.9845 11.25 66.6047 14C66.7287 14.625 66.8527 15.25 66.9767 15.875 67.1008 15.375 67.2248 14.75 67.4729 14L68.2171 11.25 69.2093 11.25 69.9535 13.875C70.2016 14.5 70.3256 15.125 70.4496 15.75 70.5736 15.125 70.6977 14.5 70.8217 13.875L71.5659 11.25Z"/><path d="M79.5039 17 78.2636 17 78.2636 13.75C78.2636 12.75 77.8915 12.25 77.1473 12.25 76.7752 12.25 76.5271 12.375 76.2791 12.625 76.031 12.875 75.907 13.25 75.907 13.625L75.907 17 74.6667 17 74.6667 12.875C74.6667 12.375 74.6667 11.875 74.6667 11.25L75.7829 11.25 75.7829 12.125C75.907 11.875 76.155 11.625 76.4031 11.375 76.7752 11.125 77.1473 11 77.5194 11 78.0155 11 78.5116 11.125 78.8837 11.5 79.3798 11.875 79.5039 12.5 79.5039 13.375Z"/><path d="M82.9767 17 81.7364 17 81.7364 8.625 82.9767 8.625Z"/><path d="M90.4186 14.125C90.4186 15 90.1705 15.75 89.6744 16.25 89.1783 16.875 88.4341 17.125 87.5659 17.125 86.6977 17.125 86.0775 16.875 85.5814 16.25 85.0853 15.75 84.8372 15 84.8372 14.125 84.8372 13.25 85.0853 12.5 85.5814 12 86.0775 11.5 86.8217 11.125 87.6899 11.125 88.5581 11.125 89.1783 11.375 89.6744 12 90.1705 12.5 90.4186 13.25 90.4186 14.125ZM89.1783 14.125C89.1783 13.625 89.0543 13.125 88.8062 12.75 88.5581 12.25 88.186 12.125 87.6899 12.125 87.1938 12.125 86.8217 12.375 86.5736 12.75 86.3256 13.125 86.2016 13.625 86.2016 14.125 86.2016 14.625 86.3256 15.125 86.5736 15.5 86.8217 16 87.1938 16.125 87.6899 16.125 88.186 16.125 88.5581 15.875 88.8062 15.375 89.0543 15.125 89.1783 14.625 89.1783 14.125Z"/><path d="M96.4961 17 95.3798 17 95.2558 16.375C94.8837 16.875 94.2636 17.125 93.6434 17.125 93.1473 17.125 92.6512 17 92.4031 16.625 92.155 16.25 91.907 15.875 91.907 15.5 91.907 14.75 92.155 14.25 92.7752 13.875 93.3953 13.5 94.1395 13.375 95.2558 13.375L95.2558 13.25C95.2558 12.5 94.8837 12.125 94.1395 12.125 93.5194 12.125 93.1473 12.25 92.6512 12.5L92.4031 11.625C92.8992 11.25 93.5194 11.125 94.3876 11.125 95.876 11.125 96.6202 11.875 96.6202 13.5L96.6202 15.625C96.4961 16.25 96.4961 16.625 96.4961 17ZM95.2558 15 95.2558 14.125C93.8915 14.125 93.1473 14.5 93.1473 15.25 93.1473 15.5 93.2713 15.75 93.3953 15.875 93.5194 16 93.7674 16.125 94.0155 16.125 94.2636 16.125 94.5116 16 94.7597 15.875 95.0078 15.75 95.1318 15.5 95.2558 15.25 95.2558 15.25 95.2558 15.125 95.2558 15Z"/><path d="M103.69 17 102.574 17 102.574 16.125C102.202 16.875 101.581 17.125 100.713 17.125 99.969 17.125 99.4729 16.875 98.9767 16.375 98.4806 15.875 98.3566 15.125 98.3566 14.25 98.3566 13.375 98.6047 12.625 99.1008 12 99.5969 11.5 100.217 11.25 100.837 11.25 101.581 11.25 102.078 11.5 102.45 12L102.45 8.75 103.69 8.75 103.69 15.5ZM102.45 14.625 102.45 13.625C102.45 13.5 102.45 13.375 102.45 13.25 102.326 13 102.202 12.75 101.953 12.5 101.705 12.25 101.457 12.25 101.085 12.25 100.589 12.25 100.217 12.5 99.969 12.875 99.7209 13.25 99.5969 13.75 99.5969 14.375 99.5969 15 99.7209 15.375 99.969 15.75 100.217 16.125 100.589 16.375 101.085 16.375 101.457 16.375 101.829 16.25 102.078 15.875 102.326 15.375 102.45 15 102.45 14.625Z"/><path d="M114.481 14.125C114.481 15 114.233 15.75 113.736 16.25 113.24 16.875 112.496 17.125 111.628 17.125 110.76 17.125 110.14 16.875 109.643 16.25 109.147 15.75 108.899 15 108.899 14.125 108.899 13.25 109.147 12.5 109.643 12 110.14 11.375 110.884 11.125 111.752 11.125 112.62 11.125 113.24 11.375 113.736 12 114.233 12.5 114.481 13.25 114.481 14.125ZM113.116 14.125C113.116 13.625 112.992 13.125 112.744 12.75 112.496 12.25 112.124 12.125 111.628 12.125 111.132 12.125 110.76 12.375 110.512 12.75 110.264 13.125 110.14 13.625 110.14 14.125 110.14 14.625 110.264 15.125 110.512 15.5 110.76 16 111.132 16.125 111.628 16.125 112.124 16.125 112.496 15.875 112.744 15.375 112.992 15.125 113.116 14.625 113.116 14.125Z"/><path d="M121.302 17 120.062 17 120.062 13.75C120.062 12.75 119.69 12.25 118.946 12.25 118.574 12.25 118.326 12.375 118.078 12.625 117.829 12.875 117.705 13.25 117.705 13.625L117.705 17 116.465 17 116.465 12.875C116.465 12.375 116.465 11.875 116.465 11.25L117.581 11.25 117.581 12.125C117.705 11.875 117.953 11.625 118.202 11.375 118.574 11.125 118.946 11 119.318 11 119.814 11 120.31 11.125 120.682 11.5 121.178 11.875 121.302 12.5 121.302 13.375Z"/><path d="M129.736 12.25 128.372 12.25 128.372 15C128.372 15.75 128.62 16 129.116 16L129.736 16 129.736 17C129.488 17.125 129.116 17.125 128.744 17.125 128.248 17.125 127.876 17 127.628 16.625 127.38 16.375 127.256 15.75 127.256 15.125L127.256 12.25 126.388 12.25 126.388 11.25 127.256 11.25 127.256 10.25 128.496 9.875 128.496 11.25 129.86 11.25 129.86 12.25Z"/><path d="M136.434 17 135.194 17 135.194 13.75C135.194 12.75 134.822 12.25 134.078 12.25 133.457 12.25 133.085 12.5 132.837 13.125L132.837 13.625 132.837 17 131.597 17 131.597 8.625 132.837 8.625 132.837 12.125C133.209 11.5 133.829 11.125 134.574 11.125 135.07 11.125 135.566 11.25 135.814 11.625 136.186 12 136.434 12.75 136.434 13.5Z"/><path d="M143.256 13.875 143.256 14.5 139.535 14.5C139.535 15.125 139.783 15.5 140.031 15.75 140.403 16 140.775 16.125 141.271 16.125 141.891 16.125 142.388 16 142.76 15.875L143.008 16.75C142.512 17 141.891 17.125 141.147 17.125 140.279 17.125 139.535 16.875 139.039 16.375 138.543 15.875 138.295 15.125 138.295 14.25 138.295 13.375 138.543 12.625 139.039 12.125 139.535 11.5 140.155 11.25 141.023 11.25 141.891 11.25 142.512 11.5 142.884 12.125 143.132 12.5 143.256 13.125 143.256 13.875ZM142.14 13.5C142.14 13.125 142.016 12.75 141.891 12.5 141.643 12.125 141.395 12 140.899 12 140.527 12 140.155 12.125 139.907 12.5 139.659 12.75 139.535 13.125 139.535 13.5Z"/></g></g></svg>