<svg width="160" height="50" viewBox="0 0 160 50" xmlns="http://www.w3.org/2000/svg" xmlns:xlink="http://www.w3.org/1999/xlink" overflow="hidden"><linearGradient x1="32.175%" y1="-6.09573%" x2="54.4362%" y2="92.156%" id="a"><stop offset="0" stop-color="#006884"/><stop offset="1" stop-color="#8AD1D0"/></linearGradient><linearGradient x1="-7.52792%" y1="30.1212%" x2="91.537%" y2="71.0453%" id="b"><stop offset="0" stop-color="#24BBB6"/><stop offset="1" stop-color="#DBE692"/></linearGradient><linearGradient x1="49.9404%" y1="105.755%" x2="49.9404%" y2="-3.1274%" id="c"><stop offset="0" stop-color="#FCC072"/><stop offset="1" stop-color="#F58A5B"/></linearGradient><linearGradient x1="11.1493%" y1="89.7382%" x2="90.4368%" y2="27.8001%" id="d"><stop offset="0" stop-color="#712B8F"/><stop offset="1" stop-color="#EA1D27"/></linearGradient><g fill="none" fill-rule="evenodd"><path d="M155 50 5 50C2.25 50 0 47.75 0 45L0 5C0 2.25 2.25 0 5 0L155 0C157.75 0 160 2.25 160 5L160 45C160 47.75 157.75 50 155 50Z" fill="#000000" fill-rule="nonzero"/><path d="M14.9222 24.0771 14.9222 11.0973C14.9222 10.3556 15.5385 9.73746 16.1548 9.73746 16.7711 9.73746 17.0177 9.86108 17.3875 10.1083L41.1768 23.2118C41.6698 23.459 41.9163 23.8299 41.9163 24.2007 41.9163 24.5716 41.6698 24.9424 41.1768 25.1897L17.3875 38.2931C17.1409 38.4168 16.7711 38.664 16.1548 38.664 15.5385 38.664 14.9222 38.0459 14.9222 37.3042Z" fill="url(#a)"/><path d="M30.3298 24.2007 15.9083 9.73746 16.1548 9.73746C16.7711 9.73746 17.0177 9.86108 17.3875 10.1083L34.8905 19.7505Z" fill="url(#b)"/><path d="M34.7672 28.5273 30.3298 24.0771 34.8905 19.5033 41.1768 22.9646C41.6698 23.2118 41.9163 23.5826 41.9163 23.9535 41.9163 24.3243 41.6698 24.6952 41.1768 24.9424Z" fill="url(#c)"/><path d="M16.0316 38.4168 30.3298 24.0771 34.7672 28.5273 17.3875 38.0459C17.0177 38.2931 16.7711 38.4168 16.0316 38.4168 16.1548 38.4168 16.1548 38.4168 16.0316 38.4168Z" fill="url(#d)"/><g fill="#FFFFFF"><path d="M90.481 41.7544C89.8647 41.26 89.3717 40.3946 89.1251 39.9002L91.0973 39.0348C91.2206 39.2821 91.4671 39.6529 91.7136 40.0238 92.2067 40.5183 92.9462 41.0127 93.6858 41.0127 94.4253 41.0127 95.2882 40.6419 95.7812 40.0238 96.151 39.4057 96.3975 38.7876 96.3975 37.9223L96.3975 37.1806C94.9184 39.0348 91.8369 38.7876 90.1112 36.8097 88.2623 34.8318 88.2623 31.4942 90.1112 29.5163 91.9601 27.662 94.6719 27.4148 96.2743 29.1454L96.2743 28.2801 98.3697 28.2801 98.3697 37.5514C98.3697 39.9002 97.5069 41.26 96.3975 42.1253 95.658 42.7434 94.5486 42.9906 93.5625 42.9906 92.4532 42.867 91.3438 42.4961 90.481 41.7544ZM142.127 42.2489 144.223 37.3042 140.525 28.7746 142.62 28.7746 145.209 34.8318 147.797 28.7746 149.893 28.7746 144.223 42.2489ZM132.143 37.5514C131.527 36.9333 131.28 36.068 131.28 35.2027 131.28 34.461 131.527 33.7193 132.02 33.2248 132.883 32.3595 134.115 31.9886 135.471 31.9886 136.334 31.9886 137.074 32.1123 137.69 32.4831 137.69 30.9997 136.457 30.3816 135.471 30.3816 134.608 30.3816 133.745 30.8761 133.376 31.7414L131.527 30.9997C131.897 30.1344 132.883 28.5273 135.348 28.5273 136.58 28.5273 137.813 28.8982 138.553 29.7635 139.292 30.6288 139.539 31.6178 139.539 32.9776L139.539 38.1695 137.443 38.1695 137.443 37.3042C137.197 37.675 136.704 37.9223 136.334 38.1695 135.841 38.4168 135.225 38.5404 134.608 38.5404 133.869 38.4168 132.759 38.1695 132.143 37.5514ZM66.4452 33.1012C66.4452 30.6288 68.2941 27.9093 71.6221 27.9093 74.8269 27.9093 76.7991 30.6288 76.7991 33.1012 76.7991 35.5736 74.9502 38.2931 71.6221 38.2931 68.2941 38.2931 66.4452 35.5736 66.4452 33.1012ZM77.5386 33.1012C77.5386 30.6288 79.3876 27.9093 82.7156 27.9093 85.9204 27.9093 87.8925 30.6288 87.8925 33.1012 87.8925 35.5736 86.0436 38.2931 82.7156 38.2931 79.5108 38.2931 77.5386 35.5736 77.5386 33.1012ZM52.5167 35.8208C49.4352 32.7303 49.5585 27.662 52.64 24.448 54.2424 22.8409 56.2146 22.0992 58.31 22.0992 60.2822 22.0992 62.2543 22.8409 63.7334 24.3243L62.2543 25.9314C60.0356 23.7063 56.4611 23.8299 54.3656 26.055 52.1469 28.4037 52.1469 31.9886 54.3656 34.3374 56.5843 36.6861 60.2822 36.8097 62.5008 34.461 63.2404 33.7193 63.4869 32.7303 63.6102 31.7414L58.4332 31.7414 58.4332 29.5163 65.7056 29.5163C65.8289 30.0108 65.8289 30.6288 65.8289 31.2469 65.8289 33.1012 65.0893 34.9555 63.8567 36.1916 62.5008 37.5514 60.5287 38.2931 58.5565 38.2931 56.3378 38.1695 54.1191 37.4278 52.5167 35.8208ZM104.656 36.6861C102.807 34.7082 102.807 31.3706 104.656 29.2691 106.505 27.2912 109.586 27.2912 111.312 29.2691 111.928 29.8871 112.298 30.7525 112.668 31.6178L105.889 34.461C106.258 35.3263 107.121 36.068 108.354 36.068 109.463 36.068 110.203 35.6972 110.942 34.5846L112.791 35.8208C112.545 36.068 112.298 36.3153 112.175 36.5625 110.079 38.664 106.505 38.664 104.656 36.6861ZM117.475 38.1695 117.475 24.448 121.912 24.448C124.501 24.448 126.596 26.3022 126.596 28.5273 126.596 30.7525 124.747 32.6067 122.406 32.6067L119.694 32.6067 119.694 38.0459 117.475 38.0459ZM127.829 38.1695 127.829 24.448 129.924 24.448 129.924 38.1695ZM99.9721 37.9223 99.9721 22.5937 102.191 22.5937 102.191 37.9223ZM137.567 34.0901C137.074 33.7193 136.334 33.5957 135.594 33.5957 134.115 33.5957 133.252 34.3374 133.252 35.2027 133.252 36.068 134.115 36.5625 134.978 36.5625 136.211 36.5625 137.567 35.5736 137.567 34.0901ZM74.4571 33.1012C74.4571 31.6178 73.471 30.0108 71.6221 30.0108 69.7732 30.0108 68.7871 31.6178 68.7871 33.1012 68.7871 34.5846 69.7732 36.1916 71.6221 36.1916 73.3478 36.1916 74.4571 34.5846 74.4571 33.1012ZM85.5506 33.1012C85.5506 31.6178 84.5645 30.0108 82.7156 30.0108 80.8667 30.0108 79.8806 31.6178 79.8806 33.1012 79.8806 34.5846 80.8667 36.1916 82.7156 36.1916 84.5645 36.1916 85.5506 34.5846 85.5506 33.1012ZM96.5208 33.9665C96.5208 33.8429 96.5208 33.7193 96.644 33.5957 96.644 33.472 96.644 33.2248 96.644 33.1012 96.644 32.9776 96.644 32.7303 96.644 32.6067L96.644 32.4831C96.644 32.3595 96.5208 32.1123 96.5208 31.9886 96.151 30.7525 95.0416 29.8871 93.9323 29.8871 92.4532 29.8871 91.2206 31.3706 91.2206 32.9776 91.2206 34.7082 92.4532 36.068 94.0556 36.068 95.0416 36.1916 96.0277 35.3263 96.5208 33.9665ZM105.519 32.854 110.079 30.8761C109.586 30.0108 108.847 29.7635 108.231 29.7635 106.382 29.8871 105.272 31.865 105.519 32.854ZM124.378 28.651C124.378 27.4148 123.392 26.5495 122.036 26.5495L119.571 26.5495 119.571 30.8761 122.159 30.8761C123.392 30.8761 124.378 29.8871 124.378 28.651Z"/><path d="M143.73 39.7766 143.606 39.7766 143.606 39.6529 143.73 39.6529 143.606 39.6529 143.606 39.7766Z"/><path d="M143.73 39.7766C143.73 39.6529 143.73 39.6529 143.73 39.7766Z"/><path d="M143.73 39.7766 143.73 39.6529Z"/><path d="M143.73 39.6529 143.73 39.7766Z"/><path d="M143.73 39.7766 143.73 39.6529Z"/><path d="M143.73 39.7766C143.73 39.6529 143.73 39.6529 143.73 39.7766ZM143.73 39.7766C143.73 39.6529 143.73 39.6529 143.73 39.7766Z"/><path d="M143.853 39.7766C143.853 39.6529 143.853 39.6529 143.853 39.7766ZM143.853 39.7766C143.853 39.6529 143.853 39.6529 143.853 39.7766Z"/><path d="M143.853 39.6529 143.853 39.7766Z"/><path d="M143.853 39.7766 143.853 39.6529Z"/><path d="M143.853 39.7766C143.853 39.6529 143.853 39.6529 143.853 39.7766ZM143.853 39.6529C143.853 39.7766 143.853 39.7766 143.853 39.6529Z"/><path d="M143.853 39.7766C143.853 39.6529 143.853 39.6529 143.853 39.7766Z"/><path d="M143.976 39.7766C143.976 39.6529 143.976 39.6529 143.976 39.7766 143.853 39.6529 143.853 39.6529 143.976 39.7766 143.853 39.7766 143.853 39.7766 143.976 39.7766ZM143.976 39.6529C143.976 39.7766 143.976 39.7766 143.976 39.6529 143.976 39.7766 143.853 39.7766 143.976 39.6529 143.853 39.6529 143.976 39.6529 143.976 39.6529Z"/><path d="M143.976 39.7766 143.976 39.6529 143.976 39.7766 143.976 39.6529 143.976 39.7766 143.976 39.6529Z"/><path d="M143.976 39.7766C143.976 39.6529 143.976 39.6529 143.976 39.7766Z"/><path d="M144.099 39.6529 143.976 39.6529 144.099 39.6529 144.099 39.7766Z"/><path d="M144.099 39.7766 144.099 39.6529Z"/><path d="M144.099 39.7766C144.099 39.6529 144.099 39.6529 144.099 39.7766Z"/><path d="M50.7911 12.3334C50.7911 10.1083 52.3935 8.74852 54.3656 8.74852 55.7215 8.74852 56.5843 9.36661 57.2006 10.2319L56.2146 10.85C55.8448 10.3556 55.2285 9.9847 54.3656 9.9847 53.0098 9.9847 52.0237 10.9736 52.0237 12.4571 52.0237 13.9405 53.0098 14.9294 54.3656 14.9294 55.1052 14.9294 55.7215 14.5586 55.968 14.3113L55.968 13.1988 53.9959 13.1988 53.9959 12.0862 57.3239 12.0862 57.3239 14.6822C56.7076 15.4239 55.7215 15.9183 54.4889 15.9183 52.3935 15.9183 50.7911 14.4349 50.7911 12.3334Z" fill-rule="nonzero"/><path d="M58.803 15.7947 58.803 8.87214 63.4869 8.87214 63.4869 9.9847 59.9124 9.9847 59.9124 11.7153 63.3637 11.7153 63.3637 12.8279 59.9124 12.8279 59.9124 14.8058 63.4869 14.8058 63.4869 15.9183Z" fill-rule="nonzero"/><path d="M66.9382 15.7947 66.9382 9.9847 64.8428 9.9847 64.8428 8.87214 70.2663 8.87214 70.2663 9.9847 68.1708 9.9847 68.1708 15.7947Z" fill-rule="nonzero"/><path d="M74.4571 15.7947 74.4571 8.87214 75.6897 8.87214 75.6897 15.7947Z" fill-rule="nonzero"/><path d="M79.0178 15.7947 79.0178 9.9847 76.9223 9.9847 76.9223 8.87214 82.3458 8.87214 82.3458 9.9847 80.2504 9.9847 80.2504 15.7947Z" fill-rule="nonzero"/><path d="M86.2901 12.3334C86.2901 10.2319 87.7693 8.74852 89.8647 8.74852 91.9601 8.74852 93.4393 10.2319 93.4393 12.3334 93.4393 14.4349 91.9601 15.9183 89.8647 15.9183 87.7693 15.9183 86.2901 14.3113 86.2901 12.3334ZM92.0834 12.3334C92.0834 10.85 91.2206 9.86108 89.7414 9.86108 88.3856 9.86108 87.3995 10.9736 87.3995 12.3334 87.3995 13.8168 88.2623 14.8058 89.7414 14.8058 91.2206 14.8058 92.0834 13.6932 92.0834 12.3334Z" fill-rule="nonzero"/><path d="M99.6023 15.7947 96.0277 10.85 96.0277 15.7947 94.7951 15.7947 94.7951 8.87214 96.0277 8.87214 99.6023 13.6932 99.6023 8.87214 100.835 8.87214 100.835 15.7947Z" fill-rule="nonzero"/></g></g></svg>